<mxfile host="app.diagrams.net" modified="2024-06-23T13:14:28.524Z" agent="Mozilla/5.0 (Macintosh; Intel Mac OS X 10_15_7) AppleWebKit/537.36 (KHTML, like Gecko) Chrome/124.0.0.0 Safari/537.36" etag="7saJU8o4KxLYKqqCPsAN" version="24.4.15" type="github">
  <diagram name="第 1 页" id="5l0kKhRnVJDhEQ0UBodO">
    <mxGraphModel dx="2046" dy="735" grid="0" gridSize="10" guides="1" tooltips="1" connect="1" arrows="1" fold="1" page="0" pageScale="1" pageWidth="827" pageHeight="1169" math="0" shadow="0">
      <root>
        <mxCell id="0" />
        <mxCell id="1" parent="0" />
        <mxCell id="ez7I5YomMLrkiN3JUJvY-5" value="" style="edgeStyle=orthogonalEdgeStyle;rounded=0;orthogonalLoop=1;jettySize=auto;html=1;" edge="1" parent="1" source="ez7I5YomMLrkiN3JUJvY-1" target="ez7I5YomMLrkiN3JUJvY-4">
          <mxGeometry relative="1" as="geometry" />
        </mxCell>
        <mxCell id="ez7I5YomMLrkiN3JUJvY-1" value="主角穿越-杨兴" style="rounded=0;whiteSpace=wrap;html=1;" vertex="1" parent="1">
          <mxGeometry x="-66" y="120" width="159" height="33" as="geometry" />
        </mxCell>
        <mxCell id="ez7I5YomMLrkiN3JUJvY-7" value="" style="edgeStyle=orthogonalEdgeStyle;rounded=0;orthogonalLoop=1;jettySize=auto;html=1;" edge="1" parent="1" source="ez7I5YomMLrkiN3JUJvY-4" target="ez7I5YomMLrkiN3JUJvY-6">
          <mxGeometry relative="1" as="geometry" />
        </mxCell>
        <mxCell id="ez7I5YomMLrkiN3JUJvY-13" value="" style="edgeStyle=orthogonalEdgeStyle;rounded=0;orthogonalLoop=1;jettySize=auto;html=1;" edge="1" parent="1" source="ez7I5YomMLrkiN3JUJvY-4" target="ez7I5YomMLrkiN3JUJvY-12">
          <mxGeometry relative="1" as="geometry" />
        </mxCell>
        <mxCell id="ez7I5YomMLrkiN3JUJvY-4" value="觉醒大会" style="rounded=0;whiteSpace=wrap;html=1;" vertex="1" parent="1">
          <mxGeometry x="173" y="120" width="159" height="33" as="geometry" />
        </mxCell>
        <mxCell id="ez7I5YomMLrkiN3JUJvY-9" value="" style="edgeStyle=orthogonalEdgeStyle;rounded=0;orthogonalLoop=1;jettySize=auto;html=1;" edge="1" parent="1" source="ez7I5YomMLrkiN3JUJvY-6" target="ez7I5YomMLrkiN3JUJvY-8">
          <mxGeometry relative="1" as="geometry" />
        </mxCell>
        <mxCell id="ez7I5YomMLrkiN3JUJvY-6" value="组队升级" style="rounded=0;whiteSpace=wrap;html=1;" vertex="1" parent="1">
          <mxGeometry x="412" y="120" width="159" height="33" as="geometry" />
        </mxCell>
        <mxCell id="ez7I5YomMLrkiN3JUJvY-11" value="" style="edgeStyle=orthogonalEdgeStyle;rounded=0;orthogonalLoop=1;jettySize=auto;html=1;" edge="1" parent="1" source="ez7I5YomMLrkiN3JUJvY-8" target="ez7I5YomMLrkiN3JUJvY-10">
          <mxGeometry relative="1" as="geometry" />
        </mxCell>
        <mxCell id="ez7I5YomMLrkiN3JUJvY-8" value="高考" style="rounded=0;whiteSpace=wrap;html=1;" vertex="1" parent="1">
          <mxGeometry x="651" y="120" width="159" height="33" as="geometry" />
        </mxCell>
        <mxCell id="ez7I5YomMLrkiN3JUJvY-10" value="兽潮" style="rounded=0;whiteSpace=wrap;html=1;" vertex="1" parent="1">
          <mxGeometry x="890" y="120" width="159" height="33" as="geometry" />
        </mxCell>
        <mxCell id="ez7I5YomMLrkiN3JUJvY-12" value="甲骨文" style="rounded=0;whiteSpace=wrap;html=1;" vertex="1" parent="1">
          <mxGeometry x="173" y="233" width="159" height="33" as="geometry" />
        </mxCell>
      </root>
    </mxGraphModel>
  </diagram>
</mxfile>
